<?xml version="1.0" standalone="no"?>
<!DOCTYPE svg PUBLIC "-//W3C//DTD SVG 20010904//EN"
 "http://www.w3.org/TR/2001/REC-SVG-20010904/DTD/svg10.dtd">
<svg version="1.0" xmlns="http://www.w3.org/2000/svg"
 width="325.000000pt" height="305.000000pt" viewBox="0 0 325.000000 305.000000"
 preserveAspectRatio="xMidYMid meet">

<g transform="translate(0.000000,305.000000) scale(0.100000,-0.100000)"
fill="#000000" stroke="none">
<path d="M1460 2880 c-599 -73 -1074 -524 -1172 -1114 -18 -104 -15 -334 5
-442 49 -271 170 -499 371 -699 262 -262 584 -395 953 -395 266 1 512 76 738
225 558 369 754 1102 454 1698 -126 249 -350 470 -604 595 -223 110 -509 160
-745 132z m403 -121 c511 -102 900 -515 974 -1034 54 -387 -80 -772 -366
-1047 -321 -310 -772 -420 -1211 -298 -94 27 -258 104 -352 167 -188 126 -358
336 -442 544 -187 464 -86 976 263 1328 296 299 712 424 1134 340z"/>
<path d="M1420 1525 l0 -665 60 0 60 0 0 310 0 310 145 0 145 0 0 55 0 55
-145 0 -145 0 0 250 0 250 155 0 155 0 0 50 0 50 -215 0 -215 0 0 -665z"/>
</g>
</svg>
