<?xml version="1.0" standalone="no"?>
<!DOCTYPE svg PUBLIC "-//W3C//DTD SVG 20010904//EN"
 "http://www.w3.org/TR/2001/REC-SVG-20010904/DTD/svg10.dtd">
<svg version="1.0" xmlns="http://www.w3.org/2000/svg"
 width="352.000000pt" height="126.000000pt" viewBox="0 0 352.000000 126.000000"
 preserveAspectRatio="xMidYMid meet">

<g transform="translate(0.000000,126.000000) scale(0.100000,-0.100000)"
fill="#000000" stroke="none">
<path d="M100 640 l0 -480 40 0 40 0 0 225 0 225 95 0 95 0 0 40 0 40 -95 0
-95 0 0 175 0 175 105 0 105 0 0 40 0 40 -145 0 -145 0 0 -480z"/>
<path d="M1720 936 l0 -184 -90 -4 c-160 -7 -173 -32 -168 -313 3 -214 9 -234
74 -261 28 -12 47 -12 106 -3 53 8 73 8 76 0 2 -6 21 -11 43 -11 l39 0 0 480
0 480 -40 0 -40 0 0 -184z m0 -470 c0 -119 -4 -217 -9 -220 -5 -4 -37 -9 -70
-13 -51 -5 -65 -3 -81 12 -19 17 -20 31 -20 208 0 232 -2 227 107 227 l73 0 0
-214z"/>
<path d="M1950 641 l0 -481 40 0 40 0 2 350 3 350 124 -350 c124 -347 125
-350 153 -350 l28 0 0 480 0 480 -40 0 -40 0 -1 -347 0 -348 -123 345 -123
345 -32 3 -31 3 0 -480z"/>
<path d="M2525 1095 l-25 -24 0 -431 0 -431 25 -24 c23 -24 29 -25 160 -25
131 0 137 1 160 25 25 24 25 24 25 240 l0 215 -90 0 -90 0 0 -40 0 -40 50 0
50 0 0 -160 0 -160 -105 0 -105 0 0 400 0 400 105 0 105 0 0 -110 0 -110 40 0
40 0 0 125 c0 120 -1 127 -25 150 -23 24 -29 25 -160 25 -131 0 -137 -1 -160
-25z"/>
<path d="M3055 1095 l-25 -24 0 -431 0 -431 25 -24 c23 -24 28 -25 170 -25
142 0 147 1 170 25 l25 24 0 431 0 431 -25 24 c-23 24 -28 25 -170 25 -142 0
-147 -1 -170 -25z m285 -455 l0 -400 -115 0 -115 0 0 400 0 400 115 0 115 0 0
-400z"/>
<path d="M500 480 l0 -271 25 -24 c27 -28 37 -29 153 -11 67 10 82 10 82 -1 0
-8 14 -13 40 -13 l40 0 0 295 0 295 -40 0 -40 0 0 -249 0 -249 -32 -5 c-18 -3
-59 -9 -90 -13 l-58 -6 0 261 0 261 -40 0 -40 0 0 -270z"/>
<path d="M980 455 l0 -295 40 0 40 0 0 249 0 249 33 5 c17 3 58 9 90 13 l57 6
0 -261 0 -261 40 0 40 0 0 264 c0 146 -4 276 -9 289 -13 34 -48 39 -158 24
-77 -11 -93 -11 -93 0 0 9 -14 13 -40 13 l-40 0 0 -295z"/>
</g>
</svg>
